<?xml version="1.0" standalone="no"?>
<!DOCTYPE svg PUBLIC "-//W3C//DTD SVG 20010904//EN"
 "http://www.w3.org/TR/2001/REC-SVG-20010904/DTD/svg10.dtd">
<svg version="1.0" xmlns="http://www.w3.org/2000/svg"
 width="100px" height="100px" viewBox="0 0 500.000000 500.000000"
 preserveAspectRatio="xMidYMid meet">

<g transform="translate(0.000000,500.000000) scale(0.100000,-0.100000)"
fill="#2081e2" stroke="none">
<path d="M2335 4990 c-479 -31 -947 -205 -1340 -500 -143 -107 -383 -349 -493
-498 -300 -404 -464 -854 -491 -1353 -34 -596 140 -1164 502 -1648 82 -109
327 -361 433 -443 277 -218 620 -387 946 -467 593 -146 1195 -79 1733 194 234
118 419 250 614 440 521 506 791 1198 750 1924 -34 624 -280 1172 -729 1622
-511 514 -1201 775 -1925 729z m883 -1226 l22 -15 0 -1249 0 -1249 -22 -15
c-30 -21 -68 -19 -97 5 l-24 20 6 1242 5 1241 22 18 c27 22 59 23 88 2z
m-1684 -275 l26 -20 0 -974 0 -974 -22 -15 c-31 -22 -68 -20 -95 6 l-23 21 0
966 0 965 22 23 c27 29 57 29 92 2z m1350 -170 l26 -20 0 -794 0 -793 -26 -17
c-29 -19 -75 -13 -96 12 -10 13 -14 170 -16 805 l-2 788 32 20 c41 25 49 25
82 -1z m663 -87 c31 -20 33 -70 33 -748 0 -671 0 -684 -20 -704 -25 -25 -68
-25 -98 0 l-23 19 3 704 c2 579 5 707 17 720 14 17 67 23 88 9z m-1667 -87
l23 -24 -5 -598 -5 -597 -24 -19 c-16 -13 -32 -17 -53 -13 -59 12 -56 -24 -56
634 0 549 2 607 17 624 24 26 75 23 103 -7z m-679 -118 c14 -11 17 -72 22
-508 l7 -496 -25 -23 c-30 -28 -82 -31 -101 -6 -21 30 -26 146 -22 587 2 343
6 429 17 442 16 20 78 22 102 4z m2698 -145 c22 -17 22 -18 19 -385 l-3 -369
-25 -20 c-25 -20 -69 -19 -95 2 -8 7 -14 113 -18 377 -7 367 -7 367 15 390 26
28 77 30 107 5z m-1355 -54 c14 -19 16 -67 16 -322 0 -337 0 -336 -70 -336
-65 0 -65 -2 -65 342 0 295 1 310 19 324 31 22 82 18 100 -8z m-1680 -79 l26
-20 0 -200 0 -199 -32 -20 c-42 -25 -56 -25 -85 2 -23 21 -23 25 -23 220 0
185 1 199 20 218 26 26 60 25 94 -1z m3368 -46 c16 -14 18 -34 18 -193 0 -156
-2 -179 -17 -192 -31 -27 -56 -29 -91 -8 l-32 20 0 166 c0 199 8 224 74 224
16 0 38 -7 48 -17z m-2032 -13 c38 -20 48 -112 31 -294 -5 -60 -10 -72 -33
-89 -26 -20 -30 -20 -61 -5 -42 20 -47 42 -47 225 0 130 0 132 26 152 29 23
55 26 84 11z " 
/>
</g>
</svg>
